<svg width="375" height="654" viewBox="0 0 375 654" fill="none" xmlns="http://www.w3.org/2000/svg">
<path d="M18 266C150 177.5 293 266 377 92.5L392 0.5L423.5 11L456 741.5L-24.5 757L-67.5 662C-69.1667 565.167 -78.6813 330.82 18 266Z" fill="#24252D"/>
<path d="M18.5324 277.5C150.532 189 293.532 277.5 377.532 104L392.532 12L424.032 22.5L456.532 753L-23.9676 768.5L-66.9677 673.5C-68.6343 576.667 -78.1489 342.32 18.5324 277.5Z" fill="#1B1C22"/>
<path d="M12.5324 284.5C144.532 196 287.532 284.5 371.532 111L386.532 19L418.032 29.5L450.532 760L-29.9676 775.5L-72.9677 680.5C-74.6343 583.667 -84.1489 349.32 12.5324 284.5Z" fill="#24252D"/>
</svg>
